<mxfile host="Electron" modified="2023-04-25T21:29:38.922Z" agent="Mozilla/5.0 (Windows NT 10.0; Win64; x64) AppleWebKit/537.36 (KHTML, like Gecko) draw.io/21.1.2 Chrome/106.0.5249.199 Electron/21.4.3 Safari/537.36" etag="m8pynB3mV07_w4DRfe_f" version="21.1.2" type="device">
  <diagram name="Page-1" id="xy8C6WgEvMx3RstazMXT">
    <mxGraphModel dx="2580" dy="1905" grid="1" gridSize="10" guides="1" tooltips="1" connect="1" arrows="1" fold="1" page="1" pageScale="1" pageWidth="850" pageHeight="1100" math="0" shadow="0">
      <root>
        <mxCell id="0" />
        <mxCell id="1" parent="0" />
        <mxCell id="uiNYKlq5hg9iB2yBkHJZ-1" value="&lt;font style=&quot;font-size: 18px;&quot;&gt;Thread 0&lt;/font&gt;" style="text;html=1;align=center;verticalAlign=middle;resizable=0;points=[];autosize=1;strokeColor=none;fillColor=none;" parent="1" vertex="1">
          <mxGeometry x="10" y="130" width="100" height="40" as="geometry" />
        </mxCell>
        <mxCell id="uiNYKlq5hg9iB2yBkHJZ-3" value="&lt;font style=&quot;font-size: 18px;&quot;&gt;Thread 1&lt;/font&gt;" style="text;html=1;align=center;verticalAlign=middle;resizable=0;points=[];autosize=1;strokeColor=none;fillColor=none;" parent="1" vertex="1">
          <mxGeometry x="10" y="180" width="100" height="40" as="geometry" />
        </mxCell>
        <mxCell id="uiNYKlq5hg9iB2yBkHJZ-5" value="&lt;font style=&quot;font-size: 18px;&quot;&gt;Thread 2&lt;/font&gt;" style="text;html=1;align=center;verticalAlign=middle;resizable=0;points=[];autosize=1;strokeColor=none;fillColor=none;" parent="1" vertex="1">
          <mxGeometry x="10" y="230" width="100" height="40" as="geometry" />
        </mxCell>
        <mxCell id="uiNYKlq5hg9iB2yBkHJZ-7" value="&lt;font style=&quot;font-size: 18px;&quot;&gt;Thread 3&lt;/font&gt;" style="text;html=1;align=center;verticalAlign=middle;resizable=0;points=[];autosize=1;strokeColor=none;fillColor=none;" parent="1" vertex="1">
          <mxGeometry x="10" y="280" width="100" height="40" as="geometry" />
        </mxCell>
        <mxCell id="WrDNNnZyGEzjGebnRiMH-2" value="" style="endArrow=none;html=1;rounded=0;" edge="1" parent="1">
          <mxGeometry width="50" height="50" relative="1" as="geometry">
            <mxPoint x="80" y="125" as="sourcePoint" />
            <mxPoint x="600" y="125" as="targetPoint" />
          </mxGeometry>
        </mxCell>
        <mxCell id="WrDNNnZyGEzjGebnRiMH-3" value="" style="endArrow=none;html=1;rounded=0;" edge="1" parent="1">
          <mxGeometry width="50" height="50" relative="1" as="geometry">
            <mxPoint x="80" y="175" as="sourcePoint" />
            <mxPoint x="600" y="175" as="targetPoint" />
          </mxGeometry>
        </mxCell>
        <mxCell id="WrDNNnZyGEzjGebnRiMH-4" value="" style="endArrow=none;html=1;rounded=0;" edge="1" parent="1">
          <mxGeometry width="50" height="50" relative="1" as="geometry">
            <mxPoint x="80" y="225" as="sourcePoint" />
            <mxPoint x="600" y="225" as="targetPoint" />
          </mxGeometry>
        </mxCell>
        <mxCell id="WrDNNnZyGEzjGebnRiMH-5" value="" style="endArrow=none;html=1;rounded=0;" edge="1" parent="1">
          <mxGeometry width="50" height="50" relative="1" as="geometry">
            <mxPoint x="80" y="275" as="sourcePoint" />
            <mxPoint x="600" y="275" as="targetPoint" />
          </mxGeometry>
        </mxCell>
        <mxCell id="WrDNNnZyGEzjGebnRiMH-6" value="" style="endArrow=none;html=1;rounded=0;" edge="1" parent="1">
          <mxGeometry width="50" height="50" relative="1" as="geometry">
            <mxPoint x="80" y="325" as="sourcePoint" />
            <mxPoint x="600" y="325" as="targetPoint" />
          </mxGeometry>
        </mxCell>
        <mxCell id="WrDNNnZyGEzjGebnRiMH-8" value="&lt;font style=&quot;font-size: 18px;&quot;&gt;QS&lt;/font&gt;" style="rounded=0;whiteSpace=wrap;html=1;fontStyle=1;fillColor=#fad7ac;strokeColor=#b46504;" vertex="1" parent="1">
          <mxGeometry x="180" y="175" width="30" height="50" as="geometry" />
        </mxCell>
        <mxCell id="WrDNNnZyGEzjGebnRiMH-9" value="&lt;font style=&quot;font-size: 18px;&quot;&gt;QS&lt;/font&gt;" style="rounded=0;whiteSpace=wrap;html=1;fontStyle=1;fillColor=#fad7ac;strokeColor=#b46504;" vertex="1" parent="1">
          <mxGeometry x="250" y="225" width="30" height="50" as="geometry" />
        </mxCell>
        <mxCell id="WrDNNnZyGEzjGebnRiMH-10" value="&lt;font style=&quot;font-size: 18px;&quot;&gt;QS&lt;/font&gt;" style="rounded=0;whiteSpace=wrap;html=1;fontStyle=1;fillColor=#fad7ac;strokeColor=#b46504;" vertex="1" parent="1">
          <mxGeometry x="395" y="175" width="30" height="50" as="geometry" />
        </mxCell>
        <mxCell id="WrDNNnZyGEzjGebnRiMH-11" value="&lt;font style=&quot;font-size: 18px;&quot;&gt;QS&lt;/font&gt;" style="rounded=0;whiteSpace=wrap;html=1;fontStyle=1;fillColor=#fad7ac;strokeColor=#b46504;" vertex="1" parent="1">
          <mxGeometry x="490" y="125" width="30" height="50" as="geometry" />
        </mxCell>
        <mxCell id="WrDNNnZyGEzjGebnRiMH-13" value="" style="rounded=0;whiteSpace=wrap;html=1;fillColor=none;perimeterSpacing=0;strokeColor=#ae4132;dashed=1;strokeWidth=2;" vertex="1" parent="1">
          <mxGeometry x="180" y="120" width="340" height="160" as="geometry" />
        </mxCell>
        <mxCell id="WrDNNnZyGEzjGebnRiMH-15" value="removal&lt;br style=&quot;font-size: 14px;&quot;&gt;phase" style="rounded=0;whiteSpace=wrap;html=1;fillColor=#d0cee2;strokeColor=#56517e;fontSize=14;" vertex="1" parent="1">
          <mxGeometry x="109" y="275" width="70" height="50" as="geometry" />
        </mxCell>
        <mxCell id="WrDNNnZyGEzjGebnRiMH-16" value="reclamation&lt;br style=&quot;font-size: 14px;&quot;&gt;phase" style="rounded=0;whiteSpace=wrap;html=1;fillColor=#d0cee2;strokeColor=#56517e;fontSize=14;" vertex="1" parent="1">
          <mxGeometry x="522" y="275" width="78" height="50" as="geometry" />
        </mxCell>
        <mxCell id="WrDNNnZyGEzjGebnRiMH-17" value="" style="endArrow=classic;html=1;rounded=0;startArrow=classic;startFill=1;strokeColor=#ae4132;" edge="1" parent="1">
          <mxGeometry relative="1" as="geometry">
            <mxPoint x="180" y="107" as="sourcePoint" />
            <mxPoint x="520" y="107" as="targetPoint" />
          </mxGeometry>
        </mxCell>
        <mxCell id="WrDNNnZyGEzjGebnRiMH-18" value="&lt;font color=&quot;#ab2431&quot; style=&quot;font-size: 18px;&quot;&gt;Grace Period&lt;/font&gt;" style="edgeLabel;resizable=0;html=1;align=center;verticalAlign=middle;" connectable="0" vertex="1" parent="WrDNNnZyGEzjGebnRiMH-17">
          <mxGeometry relative="1" as="geometry" />
        </mxCell>
        <mxCell id="WrDNNnZyGEzjGebnRiMH-19" value="" style="endArrow=classic;html=1;rounded=0;entryX=0;entryY=0;entryDx=0;entryDy=0;exitX=0.477;exitY=1.01;exitDx=0;exitDy=0;exitPerimeter=0;" edge="1" parent="1" source="WrDNNnZyGEzjGebnRiMH-20" target="WrDNNnZyGEzjGebnRiMH-13">
          <mxGeometry width="50" height="50" relative="1" as="geometry">
            <mxPoint x="150" y="70" as="sourcePoint" />
            <mxPoint x="180" y="20" as="targetPoint" />
          </mxGeometry>
        </mxCell>
        <mxCell id="WrDNNnZyGEzjGebnRiMH-20" value="Any element, N, removed &lt;br style=&quot;font-size: 18px;&quot;&gt;before this point..." style="text;html=1;align=center;verticalAlign=middle;resizable=0;points=[];autosize=1;strokeColor=none;fillColor=none;fontSize=18;" vertex="1" parent="1">
          <mxGeometry x="70" y="24" width="230" height="60" as="geometry" />
        </mxCell>
        <mxCell id="WrDNNnZyGEzjGebnRiMH-21" value="" style="endArrow=classic;html=1;rounded=0;entryX=1;entryY=0;entryDx=0;entryDy=0;exitX=0.503;exitY=0.947;exitDx=0;exitDy=0;exitPerimeter=0;" edge="1" parent="1" source="WrDNNnZyGEzjGebnRiMH-22" target="WrDNNnZyGEzjGebnRiMH-13">
          <mxGeometry width="50" height="50" relative="1" as="geometry">
            <mxPoint x="550" y="75" as="sourcePoint" />
            <mxPoint x="580" y="125" as="targetPoint" />
          </mxGeometry>
        </mxCell>
        <mxCell id="WrDNNnZyGEzjGebnRiMH-22" value="... can be reclaimed&lt;br style=&quot;font-size: 18px;&quot;&gt;after this point." style="text;html=1;align=center;verticalAlign=middle;resizable=0;points=[];autosize=1;strokeColor=none;fillColor=none;fontSize=18;" vertex="1" parent="1">
          <mxGeometry x="430" y="24" width="180" height="60" as="geometry" />
        </mxCell>
        <mxCell id="WrDNNnZyGEzjGebnRiMH-24" value="" style="endArrow=classic;html=1;rounded=0;entryX=0.088;entryY=0.625;entryDx=0;entryDy=0;entryPerimeter=0;strokeColor=#000000;exitX=0.5;exitY=0;exitDx=0;exitDy=0;" edge="1" parent="1" source="WrDNNnZyGEzjGebnRiMH-25" target="WrDNNnZyGEzjGebnRiMH-13">
          <mxGeometry width="50" height="50" relative="1" as="geometry">
            <mxPoint x="210" y="400" as="sourcePoint" />
            <mxPoint x="370" y="450" as="targetPoint" />
          </mxGeometry>
        </mxCell>
        <mxCell id="WrDNNnZyGEzjGebnRiMH-25" value="&lt;span style=&quot;font-size: 16px;&quot;&gt;T1 cannot hold reference to N after this point.&lt;/span&gt;" style="text;html=1;strokeColor=none;fillColor=none;align=center;verticalAlign=middle;whiteSpace=wrap;rounded=0;fontSize=16;" vertex="1" parent="1">
          <mxGeometry x="155" y="395" width="110" height="70" as="geometry" />
        </mxCell>
        <mxCell id="WrDNNnZyGEzjGebnRiMH-27" value="&lt;span style=&quot;font-size: 16px;&quot;&gt;T2 cannot hold reference to N after this point.&lt;/span&gt;" style="text;html=1;strokeColor=none;fillColor=none;align=center;verticalAlign=middle;whiteSpace=wrap;rounded=0;fontSize=16;" vertex="1" parent="1">
          <mxGeometry x="226" y="331" width="110" height="70" as="geometry" />
        </mxCell>
        <mxCell id="WrDNNnZyGEzjGebnRiMH-28" value="" style="endArrow=classic;html=1;rounded=0;entryX=0.088;entryY=0.625;entryDx=0;entryDy=0;entryPerimeter=0;strokeColor=#000000;" edge="1" parent="1" source="WrDNNnZyGEzjGebnRiMH-27">
          <mxGeometry width="50" height="50" relative="1" as="geometry">
            <mxPoint x="280" y="330" as="sourcePoint" />
            <mxPoint x="280" y="272.5" as="targetPoint" />
          </mxGeometry>
        </mxCell>
        <mxCell id="WrDNNnZyGEzjGebnRiMH-29" value="&lt;span style=&quot;font-size: 16px;&quot;&gt;T0 cannot hold reference to N after this point.&lt;/span&gt;" style="text;html=1;strokeColor=none;fillColor=none;align=center;verticalAlign=middle;whiteSpace=wrap;rounded=0;fontSize=16;" vertex="1" parent="1">
          <mxGeometry x="465" y="350" width="110" height="70" as="geometry" />
        </mxCell>
        <mxCell id="WrDNNnZyGEzjGebnRiMH-30" value="" style="endArrow=classic;html=1;rounded=0;entryX=1;entryY=0.338;entryDx=0;entryDy=0;entryPerimeter=0;strokeColor=#000000;" edge="1" parent="1" source="WrDNNnZyGEzjGebnRiMH-29" target="WrDNNnZyGEzjGebnRiMH-13">
          <mxGeometry width="50" height="50" relative="1" as="geometry">
            <mxPoint x="464" y="337.5" as="sourcePoint" />
            <mxPoint x="464" y="280" as="targetPoint" />
          </mxGeometry>
        </mxCell>
      </root>
    </mxGraphModel>
  </diagram>
</mxfile>
